<?xml version="1.0" encoding="UTF-8"?>
<svg width="500px" height="500px" viewBox="0 0 500 500" version="1.1" xmlns="http://www.w3.org/2000/svg" xmlns:xlink="http://www.w3.org/1999/xlink">
    <!-- Generator: Sketch 47.1 (45422) - http://www.bohemiancoding.com/sketch -->
    <title>ddn 2</title>
    <desc>Created with Sketch.</desc>
    <defs></defs>
    <g id="Page-1" stroke="none" stroke-width="1" fill="none" fill-rule="evenodd">
        <g id="ddn-2" fill-rule="nonzero">
            <circle id="Oval-2-Copy" fill="#FFFFFF" cx="250.5" cy="250.5" r="235.5"></circle>
            <circle id="Oval-2" fill="#044A84" cx="250.5" cy="250.5" r="180.5"></circle>
            <g id="Group" transform="translate(181.000000, 144.298560)" fill="#FFFFFF">
                <path d="M0.25,0.201438849 L78.5,0.201438849 C96,0.201438849 109.5,1.45143885 118.75,4.20143885 C131.25,7.95143885 141.75,14.4514388 150.75,23.7014388 C159.5,32.9514388 166.25,44.4514388 171,57.951439 C175.5,71.4514385 178,88.2014385 178,107.951439 C178,125.451439 175.75,140.451439 171.5,152.951439 C166.25,168.451439 158.75,180.951439 148.75,190.451438 C141.25,197.701438 131.25,203.201438 118.75,207.451438 C109.25,210.451438 96.75,211.951438 81,211.951438 L0.25,211.951438 L0.25,0.201438849 Z M43,35.9514388 L43,176.201439 L75,176.201439 C87,176.201439 95.5,175.451439 100.75,174.201439 C107.75,172.451439 113.5,169.451439 118,165.451439 C122.5,161.201439 126.25,154.451439 129.25,144.951439 C132.25,135.451439 133.5,122.451439 133.5,106.201439 C133.5,89.951439 132,77.201439 129.25,68.451439 C126.25,59.701439 122.25,52.951439 117,47.9514388 C111.75,42.9514388 105.25,39.7014388 97.25,37.9514388 C91.25,36.7014388 79.5,35.9514388 62.25,35.9514388 L43,35.9514388 Z" id="Shape"></path>
            </g>
            <path d="M250,500 C112,500 0,388 0,250 C0,112 112,0 250,0 C388,0 500,112 500,250 C500,388 388,500 250,500 Z M251.5,476.25 C377.25,476.25 479.25,374.25 479.25,248.5 C479.25,122.75 377.25,20.75 251.5,20.75 C125.75,20.75 23.75,122.75 23.75,248.5 C23.75,374.25 125.75,476.25 251.5,476.25 Z" id="Combined-Shape-Copy-3" fill="#044A84"></path>
            <rect id="Rectangle-9" fill="#FFFFFF" x="145" y="144.5" width="41.5" height="29.5"></rect>
            <rect id="Rectangle-9-Copy" fill="#FFFFFF" x="145" y="326.75" width="41.5" height="29.5"></rect>
            <rect id="Rectangle-9-Copy-2" fill="#FFFFFF" x="201.25" y="103.5" width="26.75" height="50.25"></rect>
            <rect id="Rectangle-9-Copy-3" fill="#FFFFFF" x="248.5" y="103.5" width="26.75" height="50.25"></rect>
            <rect id="Rectangle-9-Copy-4" fill="#FFFFFF" x="248.5" y="355" width="26.75" height="50.25"></rect>
            <rect id="Rectangle-9-Copy-5" fill="#FFFFFF" x="201.25" y="355" width="26.75" height="50.25"></rect>
            <path d="M169,326.75 C168.25,328.5 167.75,330.5 167.75,332.75 C167.75,341 174.25,347.5 182.5,347.5 C190.75,347.5 197.25,341 197.25,332.75 C197.25,324.5 190.75,318 182.5,318 C182,318 181.75,318 181.25,318 C179,322.75 174.5,326.25 169,326.75 Z" id="Combined-Shape" fill="#FFFFFF"></path>
            <path d="M170,174 C169.25,172.25 168.75,170.25 168.75,168 C168.75,159.75 175.25,153.25 183.5,153.25 C191.75,153.25 198.25,159.75 198.25,168 C198.25,176.25 191.75,182.75 183.5,182.75 C183,182.75 182.75,182.75 182.25,182.75 C180,178 175.5,174.5 170,174 Z" id="Combined-Shape-Copy-4" fill="#FFFFFF"></path>
        </g>
    </g>
</svg>