<?xml version="1.0" encoding="UTF-8"?>
<svg width="1000px" height="349px" viewBox="0 0 1000 349" version="1.1" xmlns="http://www.w3.org/2000/svg" xmlns:xlink="http://www.w3.org/1999/xlink">
    <!-- Generator: Sketch 47.1 (45422) - http://www.bohemiancoding.com/sketch -->
    <title>DDN-logo-light</title>
    <desc>Created with Sketch.</desc>
    <defs></defs>
    <g id="Page-1" stroke="none" stroke-width="1" fill="none" fill-rule="evenodd">
        <g id="DDN-logo-light">
            <text id="DDN" font-family="ArialMT, Arial" font-size="237.489398" font-weight="normal" fill="#FFFFFF">
                <tspan x="485.156913" y="255.506222">DDN</tspan>
            </text>
            <g id="Group" transform="translate(0.000000, 4.882812)" fill-rule="nonzero">
                <circle id="Oval-2-Copy" fill="#FFFFFF" cx="169.974555" cy="169.974555" r="159.796438"></circle>
                <circle id="Oval-2" fill="#044A84" cx="169.974555" cy="169.974555" r="122.476675"></circle>
                <path d="M122.985581,98.0491935 L176.081425,98.0491935 C187.955895,98.0491935 197.1162,98.8973699 203.392706,100.763358 C211.87447,103.307887 218.999152,107.718405 225.106022,113.99491 C231.043257,120.271416 235.62341,128.074639 238.84648,137.234944 C241.899915,146.395249 243.596268,157.760813 243.596268,171.162001 C243.596268,183.036471 242.06955,193.214588 239.185751,201.696352 C235.62341,212.21374 230.534351,220.695504 223.74894,227.141645 C218.659881,232.061068 211.87447,235.793044 203.392706,238.676844 C196.946565,240.712467 188.464801,241.730279 177.777778,241.730279 L122.985581,241.730279 L122.985581,98.0491935 Z M151.993215,122.307039 L151.993215,217.472433 L173.706531,217.472433 C181.849025,217.472433 187.616624,216.963528 191.178965,216.115351 C195.928753,214.927904 199.830365,212.892281 202.8838,210.178116 C205.937235,207.294316 208.481764,202.714164 210.517388,196.268023 C212.553011,189.821882 213.401187,181.000847 213.401187,169.974554 C213.401187,158.94826 212.383376,150.296861 210.517388,144.359626 C208.481764,138.422391 205.7676,133.842238 202.205259,130.449533 C198.642918,127.056827 194.2324,124.851568 188.804071,123.664121 C184.732824,122.815945 176.759966,122.307039 165.055131,122.307039 L151.993215,122.307039 Z" id="Shape" fill="#FFFFFF"></path>
                <path d="M169.635284,339.270568 C75.9966073,339.270568 0,263.273961 0,169.635284 C0,75.9966073 75.9966073,0 169.635284,0 C263.273961,0 339.270568,75.9966073 339.270568,169.635284 C339.270568,263.273961 263.273961,339.270568 169.635284,339.270568 Z M170.653096,323.155216 C255.979644,323.155216 325.19084,253.94402 325.19084,168.617472 C325.19084,83.2909245 255.979644,14.0797286 170.653096,14.0797286 C85.3265479,14.0797286 16.115352,83.2909245 16.115352,168.617472 C16.115352,253.94402 85.3265479,323.155216 170.653096,323.155216 Z" id="Combined-Shape-Copy-3" fill="#044A84"></path>
                <rect id="Rectangle-9" fill="#FFFFFF" x="98.3884648" y="98.0491942" width="28.1594572" height="20.0169635"></rect>
                <rect id="Rectangle-9-Copy" fill="#FFFFFF" x="98.3884648" y="221.713316" width="28.1594572" height="20.0169635"></rect>
                <rect id="Rectangle-9-Copy-2" fill="#FFFFFF" x="136.556404" y="70.2290076" width="18.1509754" height="34.0966921"></rect>
                <rect id="Rectangle-9-Copy-3" fill="#FFFFFF" x="168.617472" y="70.2290076" width="18.1509754" height="34.0966921"></rect>
                <rect id="Rectangle-9-Copy-4" fill="#FFFFFF" x="168.617472" y="240.882103" width="18.1509754" height="34.0966921"></rect>
                <rect id="Rectangle-9-Copy-5" fill="#FFFFFF" x="136.556404" y="240.882103" width="18.1509754" height="34.0966921"></rect>
                <path d="M114.673452,221.713316 C114.164546,222.900763 113.825276,224.257846 113.825276,225.784563 C113.825276,231.382528 118.235793,235.793045 123.833757,235.793045 C129.431722,235.793045 133.842239,231.382528 133.842239,225.784563 C133.842239,220.186599 129.431722,215.776081 123.833757,215.776081 C123.494487,215.776081 123.324852,215.776081 122.985581,215.776081 C121.458863,218.999152 118.405428,221.374046 114.673452,221.713316 Z" id="Combined-Shape" fill="#FFFFFF"></path>
                <path d="M115.351993,118.066158 C114.843087,116.878711 114.503817,115.521628 114.503817,113.994911 C114.503817,108.396947 118.914334,103.986429 124.512299,103.986429 C130.110263,103.986429 134.52078,108.396947 134.52078,113.994911 C134.52078,119.592875 130.110263,124.003393 124.512299,124.003393 C124.173028,124.003393 124.003393,124.003393 123.664122,124.003393 C122.137405,120.780322 119.083969,118.405428 115.351993,118.066158 Z" id="Combined-Shape-Copy-4" fill="#FFFFFF"></path>
            </g>
        </g>
    </g>
</svg>